<svg width="40" height="40" viewBox="0 0 40 40" fill="none" xmlns="http://www.w3.org/2000/svg">
<path d="M24.5182 7.85455V15.5182H32.2455L24.5182 7.85455Z" fill="white"/>
<path d="M28.2773 16.5545H23.4455V11.7227C23.4455 9.20909 22.6545 6.87727 21.3045 4.96818C19.1818 1.96364 15.6818 0 11.7227 0C5.25 0 0 5.25 0 11.7227V40H28.2773C31.9909 40 35.3 38.2727 37.45 35.5773C39.0455 33.5727 40 31.0364 40 28.2773C40 21.8045 34.75 16.5545 28.2773 16.5545Z" fill="white"/>
<path d="M28.2773 16.5545H23.4454V11.7227C23.4454 9.20908 22.6545 6.87726 21.3045 4.96817C21.6409 6.34999 22.3773 9.42726 22.3864 9.8909V18.1636L37.45 35.5773C39.0454 33.5727 40 31.0364 40 28.2773C40 21.8045 34.75 16.5545 28.2773 16.5545Z" fill="#DDDDDD"/>
</svg>
