<svg width="88" height="89" viewBox="0 0 88 89" fill="none" xmlns="http://www.w3.org/2000/svg">
<path d="M53.94 18.06V34.93H70.94L53.94 18.06Z" fill="#C08BF0"/>
<path d="M49.08 37.2V39.7H51.58H62.21C75.0693 39.7 85.5 50.1307 85.5 62.99C85.5 68.4723 83.6059 73.5072 80.4352 77.4916C76.1584 82.8531 69.5858 86.28 62.21 86.28H2.5V26.57C2.5 13.7107 12.9307 3.28003 25.79 3.28003C33.6531 3.28003 40.6061 7.17661 44.8282 13.1526L44.8288 13.1534C47.5092 16.9439 49.08 21.5722 49.08 26.57V37.2Z" fill="#7C0EDD" stroke="#7C0EDD" stroke-width="5"/>
<path d="M62.21 37.2H51.58V26.57C51.58 21.04 49.84 15.91 46.87 11.71C47.61 14.75 49.23 21.52 49.25 22.54V40.74L82.39 79.05C85.9 74.64 88 69.06 88 62.99C88 48.75 76.45 37.2 62.21 37.2Z" fill="#6809CC"/>
</svg>
